<?xml version="1.0" encoding="iso-8859-1"?>
<!-- Uploaded to: SVG Repo, www.svgrepo.com, Generator: SVG Repo Mixer Tools -->
<svg version="1.1" id="Layer_1" xmlns="http://www.w3.org/2000/svg" xmlns:xlink="http://www.w3.org/1999/xlink" 
	 viewBox="0 0 512 512" xml:space="preserve">
<path style="fill:#D84C4C;" d="M249.187,203.546l145.971-17.297c4.199-0.498,8.085,2.288,8.962,6.425l53.951,254.584
	c3.662,17.28-8.307,33.974-25.848,36.053l-98.413,12.164L249.187,203.546z"/>
<path style="fill:#C29E84;" d="M323.496,504.087L87.405,474.836c-19.151-2.372-32.13-20.68-28.028-39.537l55.055-253.144
	c0.674-3.099,3.6-5.173,6.747-4.782l242.161,30.002c3.147,0.39,5.478,3.115,5.375,6.285l-8.387,258.926
	C359.702,491.873,342.648,506.459,323.496,504.087z"/>
<path style="fill:#AF866D;" d="M331.307,465.298L91.038,435.53c-11.954-1.481-21.535-9.066-26.202-19.134L60.725,435.3
	c-4.101,18.857,8.877,37.164,28.028,39.537l236.092,29.251c19.151,2.372,36.205-12.213,36.83-31.501l0.671-20.695
	C355.454,461.274,343.825,466.848,331.307,465.298z"/>
<rect x="151.417" y="296.98" transform="matrix(-0.9924 -0.123 0.123 -0.9924 392.9277 741.9629)" style="fill:#FFD578;" width="135.899" height="123.746"/>
<g>
	
		<rect x="198.843" y="296.796" transform="matrix(-0.9924 -0.123 0.123 -0.9924 390.0807 741.4191)" style="fill:#D84C4C;" width="38.165" height="123.746"/>
	<polygon style="fill:#D84C4C;" points="196.027,374.003 149.392,368.225 154.085,330.349 200.721,336.127 242.313,341.279 
		288.948,347.057 284.256,384.933 237.621,379.156 	"/>
	<path style="fill:#D84C4C;" d="M223.372,262.256c-5.291-6.789-15.085-8.002-21.873-2.71c-6.788,5.292-8.002,15.085-2.71,21.873
		c5.292,6.788,27.501,9.929,27.501,9.929S228.663,269.044,223.372,262.256z"/>
	<path style="fill:#D84C4C;" d="M258.091,266.557c-5.291-6.789-15.085-8.002-21.873-2.71c-6.788,5.292-9.929,27.501-9.929,27.501
		s22.303,2.374,29.092-2.917C262.17,283.139,263.383,273.346,258.091,266.557z"/>
</g>
<path d="M295.365,298.186l-34.601-4.287c4.5-3.786,7.383-9.033,8.11-14.901c0.764-6.163-0.918-12.255-4.737-17.153
	c-3.818-4.898-9.314-8.016-15.479-8.78c-6.154-0.761-12.255,0.919-17.153,4.737h0.001c-0.41,0.32-0.804,0.679-1.192,1.056
	c-0.283-0.46-0.577-0.904-0.897-1.313c-3.818-4.898-9.314-8.016-15.479-8.78c-6.162-0.764-12.255,0.919-17.153,4.737
	c-4.898,3.819-8.016,9.316-8.78,15.479c-0.727,5.869,0.787,11.66,4.228,16.43l-31.732-3.931c-4.194-0.518-8.03,2.463-8.55,6.665
	l-15.216,122.812c-0.249,2.018,0.313,4.052,1.562,5.655c1.249,1.604,3.086,2.645,5.103,2.895l134.863,16.708
	c0.32,0.04,0.638,0.059,0.953,0.059c3.812,0,7.117-2.842,7.598-6.724l15.216-122.812c0.249-2.018-0.313-4.052-1.562-5.655
	C299.219,299.48,297.383,298.435,295.365,298.186z M282.496,339.711l-34.713-4.301l3.376-27.253l34.713,4.301L282.496,339.711z
	 M216.517,303.866l19.426,2.407l-4.318,34.856c0,0.001,0,0.002-0.001,0.003c-0.001,0.001,0,0.002,0,0.003l-9.011,72.733
	l-22.661-2.808l4.318-34.855c0-0.001,0-0.003,0.001-0.004c0-0.001,0-0.002,0-0.004l4.69-37.857c0.001-0.006,0.002-0.011,0.003-0.016
	c0.001-0.005,0-0.011,0.001-0.017l4.316-34.843L216.517,303.866z M189.998,366.709l-27.252-3.377l2.808-22.661l27.253,3.376
	L189.998,366.709z M245.898,350.625l27.251,3.377l-2.808,22.661l-27.251-3.376L245.898,350.625z M240.936,269.89
	c1.668-1.299,3.736-1.87,5.838-1.61c2.098,0.26,3.971,1.322,5.271,2.991c1.3,1.668,1.874,3.743,1.613,5.841
	c-0.26,2.099-1.322,3.972-2.983,5.267c-1.746,1.265-8.105,1.954-15.241,1.839C237.068,277.272,239.283,271.278,240.936,269.89z
	 M203.221,270.864c0.26-2.099,1.322-3.972,2.991-5.272c1.405-1.096,3.099-1.675,4.852-1.675c0.328,0,0.659,0.02,0.99,0.061
	c2.097,0.26,3.968,1.321,5.267,2.986c1.264,1.75,1.949,8.1,1.838,15.23c-6.906-1.635-12.967-3.868-14.325-5.49
	C203.534,275.037,202.96,272.963,203.221,270.864z M198.067,301.58l-3.376,27.253l-31.844-3.945l3.376-27.253L198.067,301.58z
	 M156.269,377.979l31.844,3.945l-3.376,27.253l-31.844-3.945L156.269,377.979z M237.829,415.755l3.376-27.253l34.713,4.301
	l-3.376,27.252L237.829,415.755z"/>
<path d="M460.22,440.5l-55.498-261.887c-0.822-3.878-4.464-6.492-8.402-6.023l-25.294,2.997L306.31,61.351l-9.863-35.061
	c-4.009-14.25-15.626-24.217-30.32-26.011c-6.81-0.832-13.388,0.22-19.226,2.844c-14.272,2.06-25.523,11.867-29.475,25.817
	l-6.86,24.227l-67.777,119.159l-26.226-3.249c-3.931-0.493-7.591,2.105-8.433,5.978L51.885,433.67
	c-2.411,11.088-0.031,22.755,6.532,32.012s16.785,15.366,28.046,16.762l236.091,29.251c1.65,0.204,3.302,0.306,4.95,0.306
	c9.592,0,18.977-3.421,26.338-9.715c2.957-2.529,5.494-5.46,7.583-8.667l66.35-7.862c10.495-1.244,20.046-6.883,26.204-15.472
	C460.136,461.694,462.41,450.839,460.22,440.5z M354.513,177.544l-15.018,1.779l-15.807-56.19L354.513,177.544z M267.819,187.817
	l-76.754-9.51l33.745-119.17l18.956-33.326c2.037-3.581,4.708-6.072,7.6-7.732c6.365-0.223,14.16,2.383,18.744,10.474l21.945,38.737
	l32.029,113.86L267.819,187.817z M193.079,114.922L175.671,176.4l-16.404-2.032L193.079,114.922z M343.876,490.633
	c-5.435,4.649-12.341,6.722-19.437,5.846L88.348,467.229c-7.099-0.88-13.286-4.578-17.423-10.413
	c-4.137-5.835-5.578-12.898-4.058-19.887l54.756-251.776l24.376,3.02c0.015,0.002,0.031,0.004,0.046,0.006l34.167,4.234
	c0.001,0,0.003,0,0.004,0l81.818,10.136c1.337,0.716,2.895,1.049,4.512,0.858l1.232-0.146l93.229,11.55l-8.342,257.527
	C352.433,479.487,349.312,485.984,343.876,490.633z M441.518,461.35c-3.708,5.171-9.229,8.431-15.548,9.18l-58.407,6.921
	c0.227-1.524,0.375-3.064,0.425-4.618l8.569-264.522c0.129-3.962-2.785-7.368-6.719-7.856l-25.278-3.132l-0.861-3.06l47.475-5.626
	l54.047,255.04C446.54,449.903,445.226,456.179,441.518,461.35z"/>
</svg>