<?xml version="1.0" encoding="iso-8859-1"?>
<!-- Uploaded to: SVG Repo, www.svgrepo.com, Generator: SVG Repo Mixer Tools -->
<svg height="800px" width="800px" version="1.1" id="Layer_1" xmlns="http://www.w3.org/2000/svg" xmlns:xlink="http://www.w3.org/1999/xlink" 
	 viewBox="0 0 503.467 503.467" xml:space="preserve">
<g transform="translate(1 9)">
	<path style="fill:#AAB1BA;" d="M412.867,353.667c28.16,0,51.2,23.04,51.2,51.2c0,28.16-23.04,51.2-51.2,51.2
		c-28.16,0-51.2-23.04-51.2-51.2C361.667,376.707,384.707,353.667,412.867,353.667z M122.733,353.667c28.16,0,51.2,23.04,51.2,51.2
		c0,28.16-23.04,51.2-51.2,51.2s-51.2-23.04-51.2-51.2C71.533,376.707,94.573,353.667,122.733,353.667z"/>
	<path style="fill:#ECF4F7;" d="M122.733,387.8c9.387,0,17.067,7.68,17.067,17.067s-7.68,17.067-17.067,17.067
		s-17.067-7.68-17.067-17.067S113.347,387.8,122.733,387.8z M412.867,387.8c9.387,0,17.067,7.68,17.067,17.067
		s-7.68,17.067-17.067,17.067s-17.067-7.68-17.067-17.067S403.48,387.8,412.867,387.8z"/>
	<path style="fill:#FF7474;" d="M139.8,285.4h34.133V148.867H139.8V285.4z M139.8,114.733h34.133v-51.2H139.8V114.733z
		 M293.4,114.733v34.133H173.933H139.8H20.333v-34.133H139.8h34.133H293.4z"/>
	<path style="fill:#FFD0A1;" d="M293.4,80.6v34.133H173.933v-51.2h102.4C285.72,63.533,293.4,71.213,293.4,80.6z M293.4,148.867
		v119.467c0,9.387-7.68,17.067-17.067,17.067h-102.4V148.867H293.4z M139.8,148.867V285.4H37.4c-9.387,0-17.067-7.68-17.067-17.067
		V148.867H139.8z M139.8,63.533v51.2H20.333V80.6c0-9.387,7.68-17.067,17.067-17.067H139.8z"/>
	<path style="fill:#ECF4F7;" d="M412.867,251.267h-85.333V114.733H421.4c18.773,0,34.133,15.36,34.133,34.133l8.533,102.4H412.867z"
		/>
	<g>
		<path style="fill:#50DD8E;" d="M498.2,319.533v85.333h-34.133c0-28.16-23.04-51.2-51.2-51.2c-28.16,0-51.2,23.04-51.2,51.2
			h-34.133v-85.333v-68.267h85.333h51.2l25.6,25.6c8.533,8.533,8.533,25.6,8.533,25.6V319.533z"/>
		<path style="fill:#50DD8E;" d="M327.533,319.533v85.333h-153.6c0-28.16-23.04-51.2-51.2-51.2s-51.2,23.04-51.2,51.2H37.4
			c-18.773,0-34.133-15.36-34.133-34.133v-51.2H327.533z"/>
	</g>
</g>
<path style="fill:#51565F;" d="M499.2,503.467H362.667c-2.56,0-4.267-1.707-4.267-4.267c0-2.56,1.707-4.267,4.267-4.267H499.2
	c2.56,0,4.267,1.707,4.267,4.267C503.467,501.76,501.76,503.467,499.2,503.467z M328.533,503.467h-17.067
	c-2.56,0-4.267-1.707-4.267-4.267c0-2.56,1.707-4.267,4.267-4.267h17.067c2.56,0,4.267,1.707,4.267,4.267
	C332.8,501.76,331.093,503.467,328.533,503.467z M260.267,503.467h-85.333c-2.56,0-4.267-1.707-4.267-4.267
	c0-2.56,1.707-4.267,4.267-4.267h85.333c2.56,0,4.267,1.707,4.267,4.267C264.533,501.76,262.827,503.467,260.267,503.467z
	 M123.733,503.467H4.267C1.707,503.467,0,501.76,0,499.2c0-2.56,1.707-4.267,4.267-4.267h119.467c2.56,0,4.267,1.707,4.267,4.267
	C128,501.76,126.293,503.467,123.733,503.467z M413.867,469.333c-30.72,0-55.467-24.747-55.467-55.467s24.747-55.467,55.467-55.467
	c29.013,0,52.907,22.187,55.467,51.2h25.6v-76.8h-12.8c-2.56,0-4.267-1.707-4.267-4.267c0-2.56,1.707-4.267,4.267-4.267h12.8v-12.8
	c0,0,0-15.36-7.68-22.187l-24.747-24.747h-49.493l0,0h-51.2c-2.56,0-4.267-1.707-4.267-4.267c0-2.56,1.707-4.267,4.267-4.267h48.64
	l16.213-31.573c0.853-1.707,3.413-2.56,5.973-1.707c1.707,0.853,2.56,2.56,2.56,3.413c0,0.853,0,1.707-0.853,1.707L420.693,256
	h39.253l-8.533-98.133c0-16.213-13.653-29.867-29.867-29.867h-89.6v285.867c0,2.56-1.707,4.267-4.267,4.267H178.347
	c-2.56,29.013-26.453,51.2-55.467,51.2c-30.72,0-55.467-24.747-55.467-55.467S92.16,358.4,122.88,358.4
	c29.013,0,52.907,22.187,55.467,51.2h145.067V123.733c0-2.56,1.707-4.267,4.267-4.267h93.867c21.333,0,38.4,17.067,38.4,38.4
	l8.533,100.693l24.747,24.747c9.387,9.387,9.387,28.16,9.387,29.013v102.4c0,2.56-1.707,4.267-4.267,4.267H468.48
	C466.773,447.147,442.88,469.333,413.867,469.333z M413.867,366.933c-25.6,0-46.933,21.333-46.933,46.933
	c0,25.6,21.333,46.933,46.933,46.933c25.6,0,46.933-21.333,46.933-46.933C460.8,388.267,439.467,366.933,413.867,366.933z
	 M123.733,366.933c-25.6,0-46.933,21.333-46.933,46.933c0,25.6,21.333,46.933,46.933,46.933s46.933-21.333,46.933-46.933
	C170.667,388.267,149.333,366.933,123.733,366.933z M413.867,435.2c-11.947,0-21.333-9.387-21.333-21.333
	c0-11.947,9.387-21.333,21.333-21.333c11.947,0,21.333,9.387,21.333,21.333C435.2,425.813,425.813,435.2,413.867,435.2z
	 M413.867,401.067c-6.827,0-12.8,5.973-12.8,12.8c0,6.827,5.973,12.8,12.8,12.8s12.8-5.973,12.8-12.8
	C426.667,407.04,420.693,401.067,413.867,401.067z M123.733,435.2c-11.947,0-21.333-9.387-21.333-21.333
	c0-11.947,9.387-21.333,21.333-21.333c11.947,0,21.333,9.387,21.333,21.333C145.067,425.813,135.68,435.2,123.733,435.2z
	 M123.733,401.067c-6.827,0-12.8,5.973-12.8,12.8c0,6.827,5.973,12.8,12.8,12.8c6.827,0,12.8-5.973,12.8-12.8
	C136.533,407.04,130.56,401.067,123.733,401.067z M38.4,418.133c-21.333,0-38.4-17.067-38.4-38.4v-51.2
	c0-2.56,1.707-4.267,4.267-4.267H294.4c2.56,0,4.267,1.707,4.267,4.267c0,2.56-1.707,4.267-4.267,4.267H8.533v46.933
	c0,17.067,12.8,29.867,29.867,29.867c2.56,0,4.267,1.707,4.267,4.267C42.667,416.427,40.96,418.133,38.4,418.133z M277.333,298.667
	h-102.4c-2.56,0-4.267-1.707-4.267-4.267V157.867c0-2.56,1.707-4.267,4.267-4.267H294.4c2.56,0,4.267,1.707,4.267,4.267v119.467
	C298.667,289.28,289.28,298.667,277.333,298.667z M179.2,290.133h98.133c6.827,0,12.8-5.973,12.8-12.8v-115.2H179.2V290.133z
	 M140.8,298.667H38.4c-11.947,0-21.333-9.387-21.333-21.333V157.867c0-2.56,1.707-4.267,4.267-4.267H140.8
	c2.56,0,4.267,1.707,4.267,4.267V294.4C145.067,296.96,143.36,298.667,140.8,298.667z M25.6,162.133v115.2
	c0,6.827,5.973,12.8,12.8,12.8h98.133v-128H25.6z M294.4,128H174.933c-2.56,0-4.267-1.707-4.267-4.267v-51.2
	c0-2.56,1.707-4.267,4.267-4.267h102.4c11.947,0,21.333,9.387,21.333,21.333v34.133C298.667,126.293,296.96,128,294.4,128z
	 M179.2,119.467h110.933V89.6c0-6.827-5.973-12.8-12.8-12.8H179.2V119.467z M140.8,128H21.333c-2.56,0-4.267-1.707-4.267-4.267V89.6
	c0-11.947,9.387-21.333,21.333-21.333h102.4c2.56,0,4.267,1.707,4.267,4.267v51.2C145.067,126.293,143.36,128,140.8,128z
	 M25.6,119.467h110.933V76.8H38.4c-6.827,0-12.8,5.973-12.8,12.8V119.467z M226.133,42.667c-2.56,0-4.267-1.707-4.267-4.267
	c0-16.213-13.653-29.867-29.867-29.867S162.133,22.187,162.133,38.4c0,2.56-1.707,4.267-4.267,4.267
	c-2.56,0-4.267-1.707-4.267-4.267c0-16.213-13.653-29.867-29.867-29.867S93.867,22.187,93.867,38.4c0,2.56-1.707,4.267-4.267,4.267
	c-2.56,0-4.267-1.707-4.267-4.267c0-21.333,17.067-38.4,38.4-38.4c14.507,0,28.16,8.533,34.133,20.48C163.84,8.533,177.493,0,192,0
	c21.333,0,38.4,17.067,38.4,38.4C230.4,40.96,228.693,42.667,226.133,42.667z"/>
</svg>